<svg xmlns="http://www.w3.org/2000/svg" xmlns:xlink="http://www.w3.org/1999/xlink"  viewBox="0 0 96 30">
  <defs/>
  <g>
    <path fill="none" stroke="#FFFFFF" stroke-width="2.5" stroke-linecap="round" stroke-linejoin="round" d="M2.85 16.6 Q1.45 15.95 0 15.45 M85.15 7.25 Q87.5 6.3 89.6 6.1 L96 5.65 M92.85 13.15 L91.8 12.95 Q82.45 11.9 77.5 19.6 M73.45 14.9 Q68.6 18.75 65.2 18.95 L63.3 18.75 M58.6 23.65 Q72.25 38.15 76.3 21.6 L77.5 19.6 M92.85 13.15 L96 13.6 M57 12.95 Q59.9 17.8 63.3 18.75 M73.45 14.9 L76.85 11.9 Q81.4 8.7 85.15 7.25 M57 12.95 L56.75 12.5 Q52.7 4.7 47.55 4.95 45.6 4.7 42.8 5.5 M21.45 13.25 Q25.15 13.35 29.85 11.45 37.7 6.85 42.8 5.5 M58.6 23.65 L57.15 22.1 Q51.05 16.3 46.35 14.5 38.6 11.5 34.5 18.95 32.5 28.1 16.4 22.65 M21.45 13.25 Q15.5 13.05 12.05 7.75 8.5 -4.1 0.4 2.15 L0 2.5 M2.85 16.6 Q4.7 17.45 6.45 18.5 11.95 21.15 16.4 22.65"/>
    <path fill="none" stroke="#FFFFFF" stroke-width="1.5" stroke-linecap="round" stroke-linejoin="round" d="M85.15 7.25 Q88.75 7.55 92.95 8.55 L96 9.4 M77.5 19.6 Q78.85 20.95 81.75 21.5 86.8 21.1 90.15 16.4 L92.85 13.15 Q94.55 11.25 96 10.6 M77.5 19.6 L77.45 19.55 Q76 18.1 75.5 17.25 L73.45 14.9 M63.3 18.75 Q60.9 22.25 58.6 23.65 M63.3 18.75 L63.9 17.8 Q65.05 15.25 66.65 13.35 L57 12.95 M85.15 7.25 Q72.6 6.15 66.65 13.35 72.3 13.8 73.3 14.75 L73.45 14.9 M42.8 5.5 L44.6 7.75 Q48.35 11.7 55.85 12.9 L57 12.95 M42.8 5.5 Q39.05 1.5 33.65 1.2 25.85 0.8 21.45 13.25 M46.35 14.5 L47.2 17.1 Q52.6 27.35 58.6 23.65 M16.4 22.65 Q13.05 27.45 10.85 26.55 6.8 25.75 2.85 16.6 M0 11.5 Q1.3 12.95 2.1 14.85 11.5 18.15 19.7 17.1 L21.05 14.3 21.45 13.25 M16.4 22.65 L19.7 17.1 Q24.75 16.4 29.35 14.05 41.55 2.7 46.35 14.5 M0 14.05 L0.7 14.35 2.1 14.85 2.85 16.6"/>
  </g>
</svg>